<svg width="29" height="29" viewBox="0 0 29 29" fill="none" xmlns="http://www.w3.org/2000/svg">
<path d="M12.0833 21.75H16.9167" stroke="white" stroke-width="2" stroke-linecap="round" stroke-linejoin="round"/>
<path d="M2.84126 15.9664C2.41469 13.1905 2.20141 11.8026 2.7262 10.5722C3.25098 9.34185 4.41528 8.50002 6.74388 6.81636L8.48369 5.55841C11.3804 3.46397 12.8288 2.41675 14.5 2.41675C16.1712 2.41675 17.6196 3.46397 20.5163 5.55841L22.2562 6.81636C24.5847 8.50002 25.749 9.34185 26.2738 10.5722C26.7985 11.8026 26.5853 13.1905 26.1587 15.9664L25.795 18.3334C25.1902 22.2683 24.8879 24.2359 23.4767 25.4096C22.0655 26.5834 20.0024 26.5834 15.876 26.5834H13.1239C8.99765 26.5834 6.93451 26.5834 5.52329 25.4096C4.11206 24.2359 3.80972 22.2683 3.20502 18.3334L2.84126 15.9664Z" stroke="white" stroke-width="2" stroke-linejoin="round"/>
</svg>
