<svg width="29" height="29" viewBox="0 0 29 29" fill="none" xmlns="http://www.w3.org/2000/svg">
<path d="M16.9167 26.5834V9.66675C16.9167 6.24906 16.9167 4.54022 15.8549 3.47849C14.7931 2.41675 13.0843 2.41675 9.66666 2.41675C6.24898 2.41675 4.54014 2.41675 3.4784 3.47849C2.41666 4.54022 2.41666 6.24906 2.41666 9.66675V19.3334C2.41666 22.7511 2.41666 24.4599 3.4784 25.5217C4.54014 26.5834 6.24898 26.5834 9.66666 26.5834H16.9167Z" stroke="white" stroke-width="2" stroke-linecap="round"/>
<path d="M7.85417 13.2916H6.64584M12.6875 13.2916H11.4792M7.85417 8.45825H6.64584M7.85417 18.1249H6.64584M12.6875 8.45825H11.4792M12.6875 18.1249H11.4792" stroke="white" stroke-width="2" stroke-linecap="round"/>
<path d="M22.3542 18.1251H21.1458M22.3542 13.2917H21.1458" stroke="white" stroke-width="2" stroke-linecap="round"/>
<path d="M21.75 9.66675H16.9167V26.5834H21.75C24.0284 26.5834 25.1676 26.5834 25.8755 25.8756C26.5833 25.1677 26.5833 24.0285 26.5833 21.7501V14.5001C26.5833 12.2216 26.5833 11.0824 25.8755 10.3746C25.1676 9.66675 24.0284 9.66675 21.75 9.66675Z" stroke="white" stroke-width="2" stroke-linecap="round"/>
</svg>
